<?xml version="1.0" encoding="utf-8" ?>
<svg baseProfile="tiny" height="290" version="1.2" width="300" xmlns="http://www.w3.org/2000/svg" xmlns:ev="http://www.w3.org/2001/xml-events" xmlns:xlink="http://www.w3.org/1999/xlink"><defs /><g fill="none" stroke="red" stroke-width="0.1mm"><path d="M 76.0,66.5 L 85.3,66.3 L 96.0,90.3 L 131.3,129.7 L 160.0,165.3 L 183.7,182.0 L 155.7,149.3 L 133.0,114.7 L 125.7,81.3 L 131.7,80.0 L 141.0,100.3 L 138.7,108.3 L 150.3,101.3 L 130.7,74.0 L 116.3,63.7 L 87.3,60.0 L 84.3,57.7 L 78.5,53.0 Z" /><path d="M 181.0,90.0 L 182.7,98.3 L 188.3,112.7 L 187.0,126.0 L 187.7,137.3 L 186.0,143.0 L 186.7,139.7 L 188.0,131.0 L 193.0,126.7 L 196.0,124.3 L 201.0,120.0 L 203.3,111.7 L 204.7,102.0 L 198.0,98.0 L 193.5,95.5 Z" /><path d="M 202.5,94.5 L 204.0,99.3 L 204.7,107.3 L 201.3,116.3 L 195.7,121.3 L 190.7,122.7 L 187.7,118.0 L 188.3,108.3 L 190.7,99.0 L 193.0,94.0 Z" /><path d="M 120.5,107.5 L 119.7,109.7 L 119.3,115.7 L 115.0,119.0 L 110.3,120.0 L 105.7,117.7 L 106.7,111.7 L 110.3,107.7 L 113.5,104.5 Z" /><path d="M 96.5,97.5 L 101.0,99.0 L 107.0,101.3 L 108.3,107.0 L 103.7,111.0 L 96.3,111.3 L 92.5,110.0 Z" /><path d="M 184.5,172.0 L 186.0,178.3 L 185.7,185.0 L 181.3,187.3 L 176.3,182.7 L 174.0,178.5 Z" /><path d="M 238.5,59.0 L 236.3,65.0 L 235.7,74.0 L 233.7,83.0 L 236.0,89.0 L 235.3,91.3 L 236.3,89.3 L 235.3,83.7 L 235.0,80.0 L 233.7,75.7 L 235.3,71.3 L 239.0,70.3 L 245.3,70.3 L 251.0,74.0 L 255.0,76.3 L 257.0,77.7 L 253.0,73.7 L 248.0,68.0 L 243.0,64.0 Z" /><path d="M 118.0,66.5 L 117.0,70.3 L 114.7,76.3 L 109.3,79.3 L 105.7,75.0 L 104.5,72.0 Z" /><path d="M 110.0,87.5 L 109.7,91.3 L 108.7,96.0 L 104.7,98.3 L 101.3,95.7 L 101.3,92.0 L 102.5,90.0 Z" /><path d="M 244.5,64.0 L 246.3,66.0 L 248.7,68.7 L 248.7,72.3 L 246.3,73.3 L 244.5,74.0 Z" /></g></svg>