<?xml version="1.0" encoding="utf-8" ?>
<svg baseProfile="tiny" height="1536" version="1.2" width="1024" xmlns="http://www.w3.org/2000/svg" xmlns:ev="http://www.w3.org/2001/xml-events" xmlns:xlink="http://www.w3.org/1999/xlink"><defs /><g fill="none" stroke="red" stroke-width="0.1mm"><path d="M 638.0,350.5 L 609.0,430.7 L 648.7,584.7 L 576.7,676.0 L 540.7,820.3 L 525.7,996.3 L 670.7,987.7 L 762.0,893.3 L 764.7,884.7 L 617.3,901.0 L 620.0,871.0 L 585.0,737.5 Z" /><path d="M 737.5,864.0 L 761.3,872.7 L 805.0,893.3 L 820.3,935.0 L 809.7,984.3 L 767.7,1023.7 L 718.3,1036.3 L 673.0,1018.7 L 653.0,976.3 L 649.3,928.0 L 653.5,899.5 Z" /><path d="M 261.5,1092.5 L 379.3,1139.0 L 529.3,1258.3 L 661.0,1274.7 L 704.7,1313.7 L 650.3,1297.0 L 680.7,1333.3 L 636.7,1328.0 L 675.7,1358.3 L 659.0,1341.3 L 706.7,1347.7 L 674.7,1300.0 L 618.3,1282.3 L 449.0,1234.3 L 366.0,1235.5 Z" /><path d="M 189.5,1001.5 L 142.0,1038.3 L 76.3,1079.0 L 92.7,1028.0 L 92.0,991.3 L 108.7,1077.3 L 69.3,1132.3 L 90.7,1171.3 L 97.7,1141.7 L 110.0,1139.7 L 120.3,1141.0 L 120.0,1174.0 L 83.7,1236.7 L 77.3,1288.7 L 87.0,1233.7 L 130.5,1197.0 Z" /><path d="M 769.0,759.0 L 766.3,774.7 L 778.3,790.7 L 796.7,826.7 L 819.0,865.7 L 822.7,891.0 L 797.3,889.0 L 775.3,856.7 L 752.7,832.7 L 750.0,809.0 L 744.0,800.5 Z" /><path d="M 293.0,1466.5 L 325.0,1477.3 L 537.7,1480.3 L 540.0,1474.0 L 615.5,1461.5 Z" /><path d="M 492.5,1127.0 L 486.0,1098.3 L 544.0,1158.0 L 564.7,1153.0 L 741.7,1199.3 L 784.3,1194.0 L 874.7,1142.3 L 797.0,1144.0 L 766.0,1156.7 L 725.5,1204.0 Z" /><path d="M 806.5,713.5 L 793.7,727.3 L 763.0,752.7 L 741.0,754.0 L 724.7,748.7 L 726.0,741.3 L 739.7,735.7 L 769.7,714.3 L 795.3,693.0 L 813.5,674.5 Z" /><path d="M 497.0,173.5 L 496.3,204.3 L 481.0,233.0 L 486.7,262.3 L 461.3,285.7 L 417.0,366.3 L 370.7,419.0 L 374.3,415.3 L 433.7,358.3 L 471.0,294.0 L 496.7,280.3 L 488.3,250.3 L 498.7,247.3 L 492.3,218.0 L 496.5,223.5 Z" /><path d="M 505.5,460.5 L 499.0,462.3 L 490.7,479.0 L 468.0,492.0 L 465.7,507.7 L 471.0,516.3 L 488.0,523.0 L 509.3,530.7 L 524.7,538.0 L 526.3,553.0 L 500.7,548.3 L 484.3,551.7 L 489.7,555.0 L 520.3,559.0 L 545.3,539.7 L 555.0,527.0 L 526.3,519.3 L 498.7,509.3 L 473.5,495.5 Z" /><path d="M 387.5,565.5 L 391.7,576.3 L 412.0,602.7 L 457.3,654.7 L 534.3,687.3 L 613.0,676.3 L 660.0,652.0 L 668.3,625.3 L 668.3,633.3 L 651.3,651.3 L 613.0,684.3 L 529.0,680.7 L 452.0,639.7 L 416.3,591.0 L 417.0,571.0 Z" /><path d="M 650.0,123.0 L 620.3,130.0 L 567.3,154.3 L 533.0,207.7 L 520.0,229.3 L 522.7,249.0 L 527.0,227.0 L 547.7,199.3 L 585.3,146.3 L 635.0,130.0 L 644.3,132.0 L 620.3,155.3 L 594.0,150.7 L 603.3,150.0 L 639.7,141.3 L 667.3,160.3 L 681.0,175.5 Z" /><path d="M 655.0,260.5 L 642.0,261.3 L 620.0,270.0 L 599.0,273.7 L 596.0,272.0 L 607.0,261.7 L 613.0,255.7 L 607.7,260.7 L 595.0,279.0 L 585.0,296.0 L 578.7,295.0 L 581.7,275.3 L 602.0,253.7 L 617.0,245.5 Z" /><path d="M 351.0,665.0 L 360.0,697.7 L 364.3,758.7 L 335.7,790.7 L 310.7,807.0 L 279.3,819.3 L 274.3,831.0 L 245.7,859.3 L 262.7,855.3 L 260.0,850.7 L 298.3,822.3 L 326.0,799.7 L 361.3,758.0 L 376.0,731.0 Z" /><path d="M 650.0,536.5 L 647.0,544.0 L 640.7,556.3 L 627.3,565.7 L 612.3,564.0 L 601.0,558.0 L 601.7,550.3 L 607.7,543.0 L 613.5,539.5 Z" /><path d="M 741.0,816.5 L 743.7,818.7 L 752.3,822.3 L 758.0,835.3 L 762.0,848.3 L 754.7,860.3 L 745.3,862.0 L 736.7,853.0 L 733.7,840.0 L 733.0,829.5 Z" /><path d="M 554.0,576.0 L 559.7,574.7 L 570.0,576.0 L 576.0,577.3 L 583.0,577.3 L 588.0,574.0 L 597.7,578.7 L 600.7,585.7 L 599.7,591.7 L 593.0,596.7 L 583.3,599.3 L 574.0,599.3 L 564.0,596.0 L 560.0,593.5 Z" /><path d="M 468.5,540.5 L 472.3,543.7 L 484.3,551.3 L 501.0,559.7 L 521.7,560.0 L 535.7,556.0 L 540.0,558.0 L 532.7,566.0 L 519.0,573.3 L 502.3,572.7 L 484.7,563.7 L 475.0,558.0 Z" /><path d="M 326.5,478.0 L 307.7,501.3 L 288.3,521.3 L 281.0,564.0 L 301.3,603.7 L 307.7,626.7 L 318.3,634.7 L 308.0,619.7 L 307.7,611.3 L 302.7,606.7 L 300.7,585.0 L 294.7,596.7 L 288.3,581.7 L 289.3,569.3 L 303.0,531.7 L 300.7,517.7 L 305.7,505.0 L 292.5,507.5 Z" /><path d="M 743.0,759.5 L 747.3,767.7 L 754.0,779.0 L 751.3,792.7 L 745.3,798.7 L 737.7,799.3 L 731.7,790.3 L 728.5,784.5 Z" /><path d="M 652.0,556.0 L 647.3,563.0 L 639.0,574.3 L 628.3,579.0 L 619.0,578.7 L 612.7,575.3 L 615.0,572.0 L 623.7,568.3 L 636.7,559.3 L 643.0,554.0 Z" /><path d="M 726.5,825.0 L 729.3,828.3 L 733.3,840.3 L 729.0,852.3 L 721.7,860.3 L 716.0,849.7 L 715.0,844.0 Z" /><path d="M 486.0,515.0 L 490.0,516.7 L 495.3,523.0 L 496.3,529.7 L 492.3,535.0 L 487.3,535.0 L 482.3,531.7 L 480.0,525.0 L 479.0,521.0 Z" /><path d="M 825.5,753.0 L 825.0,756.7 L 823.7,762.0 L 820.7,769.7 L 816.7,775.7 L 812.7,779.7 L 811.0,773.0 L 812.0,763.7 L 813.5,756.0 Z" /><path d="M 453.5,1232.5 L 448.0,1234.0 L 428.3,1240.3 L 449.7,1240.7 L 457.0,1242.0 L 462.7,1238.7 L 459.0,1235.3 L 459.0,1232.5 Z" /><path d="M 303.0,802.5 L 307.7,802.0 L 316.0,802.3 L 325.3,803.7 L 330.7,806.7 L 332.0,809.0 L 323.0,810.7 L 318.0,811.0 Z" /><path d="M 612.5,541.0 L 607.7,544.0 L 601.3,549.0 L 594.7,546.3 L 593.0,541.0 L 592.5,537.0 Z" /><path d="M 410.0,495.0 L 414.0,498.3 L 422.7,502.7 L 429.0,507.7 L 431.3,508.3 L 432.0,507.0 L 428.7,502.3 L 426.3,498.7 L 420.7,493.7 L 418.0,491.3 L 417.3,491.0 L 419.0,494.3 L 419.0,496.0 Z" /><path d="M 654.0,1362.5 L 658.3,1363.3 L 664.7,1366.0 L 669.3,1370.3 L 667.3,1373.0 L 662.0,1372.3 L 658.5,1371.0 Z" /><path d="M 457.0,1236.5 L 456.0,1238.3 L 452.7,1241.7 L 446.7,1243.0 L 441.7,1240.7 L 439.0,1239.0 Z" /><path d="M 558.5,594.0 L 561.0,593.3 L 565.0,593.0 L 568.3,595.7 L 566.7,598.7 L 562.7,599.7 L 559.0,599.5 Z" /><path d="M 494.5,429.0 L 522.0,456.3 L 544.7,462.7 L 566.3,486.0 L 557.7,475.7 L 556.0,482.0 L 550.3,472.0 L 547.7,469.3 L 533.0,458.3 L 524.0,452.0 Z" /><path d="M 353.0,452.5 L 354.0,453.7 L 353.3,457.0 L 350.3,459.7 L 345.7,460.7 L 344.3,458.0 L 344.5,456.0 Z" /><path d="M 783.0,750.0 L 779.7,752.3 L 775.3,755.7 L 771.3,754.0 L 772.3,750.3 L 773.5,748.5 Z" /><path d="M 420.0,496.0 L 421.3,496.0 L 425.0,498.0 L 427.0,501.7 L 426.7,504.7 L 423.3,504.3 L 421.5,503.5 Z" /><path d="M 707.0,1125.0 L 705.7,1127.3 L 702.3,1131.0 L 699.3,1130.3 L 697.5,1129.5 Z" /><path d="M 536.5,185.5 L 536.3,188.7 L 534.7,190.7 L 532.0,191.7 L 530.0,190.0 Z" /><path d="M 532.5,193.5 L 533.3,195.3 L 534.3,198.3 L 533.0,199.7 L 530.3,199.7 L 529.0,199.0 Z" /><path d="M 822.0,1101.5 L 820.0,1103.7 L 817.3,1104.7 L 815.0,1104.5 Z" /><path d="M 597.0,593.0 L 598.3,594.7 L 598.3,596.3 L 597.0,598.0 Z" /></g></svg>